<svg xmlns="http://www.w3.org/2000/svg" width="720" height="390" viewBox="0 0 720 390" role="img">
  <rect x="0.5" y="0.5" width="719" height="389" rx="12" fill="#0d1117" stroke="#30363d"/>
  <text x="24" y="34" font-family="ui-sans-serif, system-ui, -apple-system, 'Segoe UI', Roboto, Helvetica, Arial, sans-serif" font-size="20" font-weight="700" fill="#f0f6fc">Problems by source</text>
  <text x="24" y="55" font-family="ui-sans-serif, system-ui, -apple-system, 'Segoe UI', Roboto, Helvetica, Arial, sans-serif" font-size="13" fill="#8b949e">159 solved problems across 10 sources</text>
  <rect x="116" y="77.0" width="536.0" height="16" rx="4" fill="#21262d"/>
  <rect x="116" y="77.0" width="482.4" height="16" rx="4" fill="#5b8def"/>
  <text x="106" y="89.0" text-anchor="end" font-family="ui-sans-serif, system-ui, -apple-system, 'Segoe UI', Roboto, Helvetica, Arial, sans-serif" font-size="13" fill="#c9d1d9">Codeforces</text>
  <text x="606.4" y="89.0" font-family="ui-sans-serif, system-ui, -apple-system, 'Segoe UI', Roboto, Helvetica, Arial, sans-serif" font-size="13" font-weight="700" fill="#f0f6fc">54</text>
  <rect x="116" y="107.0" width="536.0" height="16" rx="4" fill="#21262d"/>
  <rect x="116" y="107.0" width="339.5" height="16" rx="4" fill="#ef6f6c"/>
  <text x="106" y="119.0" text-anchor="end" font-family="ui-sans-serif, system-ui, -apple-system, 'Segoe UI', Roboto, Helvetica, Arial, sans-serif" font-size="13" fill="#c9d1d9">BOJ</text>
  <text x="463.5" y="119.0" font-family="ui-sans-serif, system-ui, -apple-system, 'Segoe UI', Roboto, Helvetica, Arial, sans-serif" font-size="13" font-weight="700" fill="#f0f6fc">38</text>
  <rect x="116" y="137.0" width="536.0" height="16" rx="4" fill="#21262d"/>
  <rect x="116" y="137.0" width="205.5" height="16" rx="4" fill="#f2b134"/>
  <text x="106" y="149.0" text-anchor="end" font-family="ui-sans-serif, system-ui, -apple-system, 'Segoe UI', Roboto, Helvetica, Arial, sans-serif" font-size="13" fill="#c9d1d9">Gym</text>
  <text x="329.5" y="149.0" font-family="ui-sans-serif, system-ui, -apple-system, 'Segoe UI', Roboto, Helvetica, Arial, sans-serif" font-size="13" font-weight="700" fill="#f0f6fc">23</text>
  <rect x="116" y="167.0" width="536.0" height="16" rx="4" fill="#21262d"/>
  <rect x="116" y="167.0" width="151.9" height="16" rx="4" fill="#4cb944"/>
  <text x="106" y="179.0" text-anchor="end" font-family="ui-sans-serif, system-ui, -apple-system, 'Segoe UI', Roboto, Helvetica, Arial, sans-serif" font-size="13" fill="#c9d1d9">Olympiads</text>
  <text x="275.9" y="179.0" font-family="ui-sans-serif, system-ui, -apple-system, 'Segoe UI', Roboto, Helvetica, Arial, sans-serif" font-size="13" font-weight="700" fill="#f0f6fc">17</text>
  <rect x="116" y="197.0" width="536.0" height="16" rx="4" fill="#21262d"/>
  <rect x="116" y="197.0" width="107.2" height="16" rx="4" fill="#9b5de5"/>
  <text x="106" y="209.0" text-anchor="end" font-family="ui-sans-serif, system-ui, -apple-system, 'Segoe UI', Roboto, Helvetica, Arial, sans-serif" font-size="13" fill="#c9d1d9">VNOJ</text>
  <text x="231.2" y="209.0" font-family="ui-sans-serif, system-ui, -apple-system, 'Segoe UI', Roboto, Helvetica, Arial, sans-serif" font-size="13" font-weight="700" fill="#f0f6fc">12</text>
  <rect x="116" y="227.0" width="536.0" height="16" rx="4" fill="#21262d"/>
  <rect x="116" y="227.0" width="44.7" height="16" rx="4" fill="#00bbf9"/>
  <text x="106" y="239.0" text-anchor="end" font-family="ui-sans-serif, system-ui, -apple-system, 'Segoe UI', Roboto, Helvetica, Arial, sans-serif" font-size="13" fill="#c9d1d9">SPOJ</text>
  <text x="168.7" y="239.0" font-family="ui-sans-serif, system-ui, -apple-system, 'Segoe UI', Roboto, Helvetica, Arial, sans-serif" font-size="13" font-weight="700" fill="#f0f6fc">5</text>
  <rect x="116" y="257.0" width="536.0" height="16" rx="4" fill="#21262d"/>
  <rect x="116" y="257.0" width="35.7" height="16" rx="4" fill="#f15bb5"/>
  <text x="106" y="269.0" text-anchor="end" font-family="ui-sans-serif, system-ui, -apple-system, 'Segoe UI', Roboto, Helvetica, Arial, sans-serif" font-size="13" fill="#c9d1d9">ICPC</text>
  <text x="159.7" y="269.0" font-family="ui-sans-serif, system-ui, -apple-system, 'Segoe UI', Roboto, Helvetica, Arial, sans-serif" font-size="13" font-weight="700" fill="#f0f6fc">4</text>
  <rect x="116" y="287.0" width="536.0" height="16" rx="4" fill="#21262d"/>
  <rect x="116" y="287.0" width="26.8" height="16" rx="4" fill="#22d3ee"/>
  <text x="106" y="299.0" text-anchor="end" font-family="ui-sans-serif, system-ui, -apple-system, 'Segoe UI', Roboto, Helvetica, Arial, sans-serif" font-size="13" fill="#c9d1d9">GCJ</text>
  <text x="150.8" y="299.0" font-family="ui-sans-serif, system-ui, -apple-system, 'Segoe UI', Roboto, Helvetica, Arial, sans-serif" font-size="13" font-weight="700" fill="#f0f6fc">3</text>
  <rect x="116" y="317.0" width="536.0" height="16" rx="4" fill="#21262d"/>
  <rect x="116" y="317.0" width="17.9" height="16" rx="4" fill="#fb923c"/>
  <text x="106" y="329.0" text-anchor="end" font-family="ui-sans-serif, system-ui, -apple-system, 'Segoe UI', Roboto, Helvetica, Arial, sans-serif" font-size="13" fill="#c9d1d9">Free Contest</text>
  <text x="141.9" y="329.0" font-family="ui-sans-serif, system-ui, -apple-system, 'Segoe UI', Roboto, Helvetica, Arial, sans-serif" font-size="13" font-weight="700" fill="#f0f6fc">2</text>
  <rect x="116" y="347.0" width="536.0" height="16" rx="4" fill="#21262d"/>
  <rect x="116" y="347.0" width="8.9" height="16" rx="4" fill="#a3a3a3"/>
  <text x="106" y="359.0" text-anchor="end" font-family="ui-sans-serif, system-ui, -apple-system, 'Segoe UI', Roboto, Helvetica, Arial, sans-serif" font-size="13" fill="#c9d1d9">CSES</text>
  <text x="132.9" y="359.0" font-family="ui-sans-serif, system-ui, -apple-system, 'Segoe UI', Roboto, Helvetica, Arial, sans-serif" font-size="13" font-weight="700" fill="#f0f6fc">1</text>
</svg>
